<svg width="208" height="41" viewBox="0 0 208 41" fill="none" xmlns="http://www.w3.org/2000/svg">
<path d="M10.4645 0.727272V40H0.972301V0.727272H10.4645ZM25.1526 23.2017V40H15.7755V10.5455H24.6924V15.9531H25.0184C25.6704 14.1506 26.7826 12.7379 28.355 11.7152C29.9275 10.6797 31.8003 10.1619 33.9736 10.1619C36.0447 10.1619 37.8408 10.6286 39.3621 11.5618C40.8962 12.4822 42.0851 13.7734 42.9289 15.4354C43.7854 17.0845 44.2073 19.0149 44.1945 21.2266V40H34.8174V23.0675C34.8302 21.4311 34.4147 20.1527 33.5709 19.2322C32.74 18.3118 31.583 17.8516 30.1 17.8516C29.1157 17.8516 28.2464 18.0689 27.4921 18.5036C26.7506 18.9254 26.1753 19.5327 25.7662 20.3253C25.3699 21.1179 25.1654 22.0767 25.1526 23.2017ZM63.1014 40.5561C59.9948 40.5561 57.3294 39.9169 55.1049 38.6385C52.8933 37.3601 51.193 35.5831 50.0041 33.3075C48.8151 31.0192 48.2207 28.3729 48.2207 25.3686C48.2207 22.3516 48.8151 19.7053 50.0041 17.4297C51.2058 15.1413 52.9125 13.358 55.1241 12.0795C57.3485 10.8011 60.0012 10.1619 63.0822 10.1619C65.8052 10.1619 68.1767 10.6541 70.1965 11.6385C72.2292 12.6229 73.8144 14.0163 74.9522 15.8189C76.1028 17.6087 76.71 19.7116 76.774 22.1278H68.0105C67.8315 20.6193 67.3201 19.4368 66.4764 18.5803C65.6454 17.7237 64.5588 17.2955 63.2164 17.2955C62.1298 17.2955 61.1774 17.6023 60.3592 18.2159C59.541 18.8168 58.9018 19.7116 58.4416 20.9006C57.9941 22.0767 57.7704 23.5341 57.7704 25.2727C57.7704 27.0114 57.9941 28.4815 58.4416 29.6832C58.9018 30.8722 59.541 31.7734 60.3592 32.3871C61.1774 32.9879 62.1298 33.2884 63.2164 33.2884C64.0857 33.2884 64.8528 33.103 65.5176 32.7322C66.1951 32.3615 66.7512 31.8182 67.1859 31.1023C67.6205 30.3736 67.8954 29.4915 68.0105 28.456H76.774C76.6845 30.8849 76.0772 33.0071 74.9522 34.8224C73.84 36.6378 72.274 38.0504 70.2541 39.0604C68.247 40.0575 65.8627 40.5561 63.1014 40.5561ZM90.3019 0.727272V40H80.9248V0.727272H90.3019ZM114.626 27.2862V10.5455H123.984V40H115.048V34.5156H114.741C114.089 36.3182 112.977 37.75 111.404 38.8111C109.845 39.8594 107.959 40.3835 105.747 40.3835C103.74 40.3835 101.976 39.9233 100.455 39.0028C98.9336 38.0824 97.751 36.7976 96.9073 35.1484C96.0635 33.4865 95.6353 31.5433 95.6225 29.3189V10.5455H105V27.478C105.012 29.076 105.434 30.3352 106.265 31.2557C107.096 32.1761 108.228 32.6364 109.659 32.6364C110.593 32.6364 111.43 32.4318 112.171 32.0227C112.926 31.6009 113.52 30.9936 113.955 30.201C114.402 29.3956 114.626 28.424 114.626 27.2862Z" fill="#0C1D45"/>
<path d="M155.077 13.5561C154.86 12.7507 154.54 12.0412 154.118 11.4276C153.697 10.8011 153.179 10.2706 152.565 9.83594C151.952 9.40128 151.248 9.07528 150.456 8.85795C149.663 8.62784 148.794 8.51278 147.848 8.51278C145.943 8.51278 144.294 8.97301 142.9 9.89346C141.52 10.8139 140.452 12.1562 139.698 13.9205C138.944 15.6719 138.567 17.8004 138.567 20.3061C138.567 22.8246 138.931 24.9723 139.66 26.7493C140.388 28.5263 141.443 29.8814 142.824 30.8146C144.204 31.7479 145.879 32.2145 147.848 32.2145C149.587 32.2145 151.057 31.9332 152.258 31.3707C153.473 30.7955 154.393 29.9837 155.02 28.9354C155.646 27.8871 155.959 26.6534 155.959 25.2344L157.724 25.4453H148.174V18.5227H165.106V23.7195C165.106 27.2351 164.359 30.2457 162.863 32.7514C161.38 35.2571 159.334 37.1811 156.726 38.5234C154.131 39.8658 151.146 40.5369 147.771 40.5369C144.025 40.5369 140.734 39.7251 137.895 38.1016C135.057 36.478 132.846 34.1641 131.261 31.1598C129.675 28.1428 128.883 24.5632 128.883 20.4212C128.883 17.1996 129.362 14.3423 130.321 11.8494C131.28 9.34375 132.616 7.22159 134.329 5.48295C136.055 3.74432 138.049 2.42756 140.312 1.53267C142.587 0.637782 145.035 0.190339 147.656 0.190339C149.932 0.190339 152.047 0.516334 154.003 1.16832C155.972 1.82031 157.711 2.74077 159.219 3.92969C160.741 5.11861 161.974 6.53125 162.92 8.16761C163.866 9.80398 164.454 11.6001 164.685 13.5561H155.077ZM207.121 20.3636C207.121 24.6847 206.29 28.3473 204.628 31.3516C202.966 34.3558 200.716 36.6378 197.878 38.1974C195.052 39.7571 191.882 40.5369 188.366 40.5369C184.838 40.5369 181.661 39.7507 178.836 38.1783C176.01 36.6058 173.767 34.3239 172.105 31.3324C170.456 28.3281 169.631 24.6719 169.631 20.3636C169.631 16.0426 170.456 12.38 172.105 9.37571C173.767 6.37145 176.01 4.08949 178.836 2.52983C181.661 0.970169 184.838 0.190339 188.366 0.190339C191.882 0.190339 195.052 0.970169 197.878 2.52983C200.716 4.08949 202.966 6.37145 204.628 9.37571C206.29 12.38 207.121 16.0426 207.121 20.3636ZM197.417 20.3636C197.417 17.8068 197.053 15.6463 196.324 13.8821C195.608 12.1179 194.573 10.782 193.218 9.87429C191.875 8.96662 190.258 8.51278 188.366 8.51278C186.487 8.51278 184.87 8.96662 183.515 9.87429C182.16 10.782 181.118 12.1179 180.389 13.8821C179.673 15.6463 179.315 17.8068 179.315 20.3636C179.315 22.9205 179.673 25.081 180.389 26.8452C181.118 28.6094 182.16 29.9453 183.515 30.853C184.87 31.7607 186.487 32.2145 188.366 32.2145C190.258 32.2145 191.875 31.7607 193.218 30.853C194.573 29.9453 195.608 28.6094 196.324 26.8452C197.053 25.081 197.417 22.9205 197.417 20.3636Z" fill="url(#paint0_linear_27_204)"/>
<defs>
<linearGradient id="paint0_linear_27_204" x1="193.735" y1="-4" x2="201.378" y2="37.3497" gradientUnits="userSpaceOnUse">
<stop offset="0.158688" stop-color="#193D94"/>
<stop offset="0.957147" stop-color="#0B53FF"/>
</linearGradient>
</defs>
</svg>
